<?xml version="1.0" encoding="UTF-8"?>
<svg width="189" height="54" viewBox="0 0 189 54" fill="none" xmlns="http://www.w3.org/2000/svg">
<path d="M38.5887 0.428807V5.92086C38.5887 6.15828 38.3964 6.34967 38.1578 6.34967H30.6013C30.3627 6.34967 30.1704 6.15585 30.1704 5.92086V0.428807C30.1704 0.191391 30.3627 0 30.6013 0H38.1578C38.3964 0 38.5887 0.191391 38.5887 0.428807ZM38.5887 8.90309V34.9534C38.5887 35.1908 38.3964 35.3822 38.1578 35.3822H30.6013C30.3627 35.3822 30.1704 35.1908 30.1704 34.9534V8.90309C30.1704 8.66568 30.3627 8.47429 30.6013 8.47429H38.1578C38.3964 8.47429 38.5887 8.66568 38.5887 8.90309Z" fill="#E5002C"/>
<path d="M67.0055 29.5268C66.7888 29.8587 66.4845 30.319 66.3141 30.5419C66.3117 30.5467 66.3068 30.5515 66.3044 30.5564C66.039 30.9052 65.7566 31.2396 65.4596 31.5618C65.4523 31.569 65.445 31.5763 65.4377 31.586C65.3184 31.7144 65.1164 31.9203 64.9922 32.0439C64.9703 32.0657 64.9484 32.0899 64.9241 32.1117C64.7975 32.2353 64.666 32.3564 64.5346 32.4775C64.4566 32.5478 64.3787 32.6156 64.3008 32.6834C64.2449 32.7295 64.1913 32.7779 64.1353 32.8239C62.0612 34.561 59.505 35.7044 56.7784 36.0799C56.6884 36.092 56.5959 36.1042 56.5058 36.1139C56.3938 36.126 56.2818 36.1405 56.1674 36.1502C55.9921 36.1672 55.8168 36.1793 55.6391 36.189C55.5758 36.1914 55.5125 36.1962 55.4492 36.1986C55.2374 36.2083 55.0232 36.2132 54.809 36.2132C46.8922 36.2132 40.4531 29.8926 40.4531 22.1233C40.4531 14.354 46.8946 8.03337 54.809 8.03337C55.0232 8.03337 55.2374 8.04064 55.4492 8.05033C55.5125 8.05275 55.5758 8.05518 55.6391 8.06002C55.8168 8.06971 55.9921 8.08425 56.1674 8.09879C56.2794 8.10848 56.3938 8.12301 56.5058 8.13512C56.5959 8.14481 56.6884 8.15692 56.7784 8.16904C59.5074 8.54454 62.0612 9.68801 64.1377 11.425C64.1937 11.4711 64.2473 11.5171 64.3008 11.5631C64.3787 11.631 64.4591 11.6988 64.5346 11.769C64.666 11.8877 64.7975 12.0089 64.9241 12.1324C64.9484 12.1567 64.9727 12.1809 64.9947 12.2051C65.1285 12.3408 65.2624 12.474 65.3915 12.6145C65.4134 12.6388 65.4353 12.6606 65.4572 12.6848C65.7542 13.007 66.0366 13.3413 66.302 13.6902C66.3044 13.695 66.3093 13.6999 66.3117 13.7047C66.5819 14.0584 66.8351 14.4266 67.0712 14.807C67.1686 14.9669 67.115 15.1752 66.9519 15.2697L63.1177 17.4719L60.9024 18.7437C60.7076 18.8552 60.4544 18.8019 60.3303 18.6129C59.0717 16.7112 57.3262 15.6598 55.2374 15.6598C53.1487 15.6598 51.3983 16.5634 50.1884 17.9782C49.1684 19.0708 48.5452 20.5268 48.5452 22.1209C48.5452 23.7149 49.1684 25.1709 50.1884 26.2635C51.3983 27.6807 53.212 28.582 55.2374 28.582C57.2629 28.582 59.0717 27.5305 60.3303 25.6288C60.4544 25.4423 60.7076 25.3865 60.9024 25.498L66.8546 28.9187C67.0688 29.0423 67.1345 29.316 67.0031 29.5244L67.0055 29.5268Z" fill="#E5002C"/>
<path d="M97.889 8.88855V34.9389C97.889 35.1763 97.6967 35.3677 97.4581 35.3677H89.9016C89.6631 35.3677 89.4708 35.1763 89.4708 34.9389V34.5416C89.4708 34.3768 89.2906 34.2751 89.147 34.3575C86.9803 35.576 84.5337 36.2156 82.0214 36.2156C74.1046 36.2156 67.6655 29.895 67.6655 22.1257C67.6655 14.3564 74.107 8.0358 82.0214 8.0358C84.5313 8.0358 86.9803 8.67537 89.147 9.89394C89.293 9.97631 89.4708 9.87456 89.4708 9.70982V8.88855C89.4708 8.65114 89.6631 8.45975 89.9016 8.45975H97.4581C97.6967 8.45975 97.889 8.65114 97.889 8.88855ZM89.4683 22.1257C89.4683 18.562 86.9462 15.6646 83.3165 15.6646C79.6868 15.6646 76.7314 18.5645 76.7314 22.1257C76.7314 25.6869 79.6843 28.5892 83.3165 28.5892C86.9487 28.5892 89.4683 25.6894 89.4683 22.1257Z" fill="#E5002C"/>
<path d="M160.814 8.88855V34.9389C160.814 35.1763 160.622 35.3677 160.383 35.3677H152.827C152.588 35.3677 152.396 35.1763 152.396 34.9389V34.5416C152.396 34.3768 152.216 34.2751 152.072 34.3575C149.906 35.576 147.459 36.2156 144.947 36.2156C137.03 36.2156 130.591 29.895 130.591 22.1257C130.591 14.3564 137.032 8.0358 144.947 8.0358C147.459 8.0358 149.906 8.67537 152.072 9.89394C152.216 9.97631 152.396 9.87456 152.396 9.70982V8.88855C152.396 8.65114 152.588 8.45975 152.827 8.45975H160.383C160.622 8.45975 160.814 8.65114 160.814 8.88855ZM152.394 22.1257C152.394 18.562 149.872 15.6646 146.242 15.6646C142.612 15.6646 139.657 18.5645 139.657 22.1257C139.657 25.6869 142.61 28.5892 146.242 28.5892C149.874 28.5892 152.394 25.6894 152.394 22.1257Z" fill="#E5002C"/>
<path d="M188.097 8.90309V34.9534C188.097 35.1908 187.905 35.3822 187.666 35.3822H180.109C179.871 35.3822 179.679 35.1908 179.679 34.9534V34.2291C179.679 34.0571 179.484 33.9529 179.343 34.0522C177.453 35.3459 175.581 35.7916 173.894 35.7916C170.14 35.7916 167.304 33.575 167.261 33.541C167.044 33.3715 166.839 33.1922 166.652 33.0081C163.896 30.2487 163.431 28.0126 163.431 24.0468V8.90309C163.431 8.66567 163.623 8.47429 163.862 8.47429H171.925C172.163 8.47429 172.356 8.66567 172.356 8.90309V23.6229C172.356 24.621 172.412 25.7669 172.833 26.6899C173.025 27.0824 173.283 27.407 173.592 27.6468C174.096 28.0417 174.751 28.2331 175.589 28.2331C177.144 28.2331 178.349 27.7001 178.734 26.8425C179.172 25.9122 179.172 24.6404 179.172 23.6204V8.90067C179.172 8.66325 179.365 8.47186 179.603 8.47186H187.668C187.907 8.47186 188.099 8.66325 188.099 8.90067L188.097 8.90309Z" fill="#E5002C"/>
<path d="M23.7265 2.68668C21.8154 1.08049 19.3493 0.0847931 12.976 0.0847931H1.95531C1.71673 0.0847931 1.52441 0.276184 1.52441 0.5136V12.1785C2.63695 10.7467 4.38 9.82369 6.33972 9.82369L3.29668 12.852L1.52441 14.6156V20.0447C2.63695 18.6129 4.38 17.6899 6.33972 17.6899L3.29668 20.7182L1.52441 22.4818V27.9109C2.63695 26.4791 4.38 25.5561 6.33972 25.5561L3.29668 28.5844L1.52441 30.3481V35.203C1.52441 35.4404 1.71673 35.6318 1.95531 35.6318H10.1861C10.4247 35.6318 10.617 35.4404 10.617 35.203V25.0013C10.617 24.7639 10.8093 24.5725 11.0479 24.5725H13.9595C19.51 24.5725 21.8227 23.4896 24.15 21.491C26.3605 19.5747 27.848 15.8148 27.848 12.1373C27.848 8.45976 26.3459 4.89368 23.7265 2.68668ZM17.0999 15.8754C15.9509 16.3914 14.5584 16.3914 13.7282 16.3914H11.0504C10.8118 16.3914 10.6195 16.2 10.6195 15.9626V8.6996C10.6195 8.46218 10.8118 8.2708 11.0504 8.2708H13.3996C14.3588 8.2708 15.8121 8.2708 17.0074 8.78681C18.4364 9.40216 19.1302 10.5481 19.1302 12.2851C19.1302 13.5109 18.7772 15.1268 17.0999 15.8802V15.8754Z" fill="#E5002C"/>
<path d="M1.52425 32.9354H0.762276C0.0855029 32.9354 -0.255318 32.119 0.224266 31.6417L1.52425 30.3481V32.933V32.9354Z" fill="#E5002C"/>
<path d="M1.52425 25.0692H0.762276C0.0855029 25.0692 -0.255318 24.2528 0.224266 23.7755L1.52425 22.4818V25.0667V25.0692Z" fill="#E5002C"/>
<path d="M1.52425 17.203H0.762276C0.0855029 17.203 -0.255318 16.3865 0.224266 15.9093L1.52425 14.6156V17.2005V17.203Z" fill="#E5002C"/>
<path d="M126.141 2.6867C124.229 1.08051 121.763 0.0848083 115.39 0.0848083H104.369C104.131 0.0848083 103.938 0.276199 103.938 0.513615V12.1785C105.051 10.7467 106.794 9.82371 108.754 9.82371L105.711 12.852L103.938 14.6156V20.0447C105.051 18.6129 106.794 17.6899 108.754 17.6899L105.711 20.7182L103.938 22.4818V27.9109C105.051 26.4792 106.794 25.5561 108.754 25.5561L105.711 28.5844L103.938 30.3481V35.203C103.938 35.4404 104.131 35.6318 104.369 35.6318H112.6C112.839 35.6318 113.031 35.4404 113.031 35.203V25.0014C113.031 24.7639 113.223 24.5726 113.462 24.5726H116.374C121.924 24.5726 124.237 23.4897 126.564 21.491C128.775 19.5747 130.262 15.8148 130.262 12.1373C130.262 8.45977 128.76 4.8937 126.141 2.6867ZM119.514 15.8754C118.365 16.3914 116.972 16.3914 116.142 16.3914H113.464C113.226 16.3914 113.034 16.2 113.034 15.9626V8.69961C113.034 8.4622 113.226 8.27081 113.464 8.27081H115.814C116.773 8.27081 118.226 8.27081 119.421 8.78683C120.85 9.40217 121.544 10.5481 121.544 12.2851C121.544 13.5109 121.191 15.1268 119.514 15.8802V15.8754Z" fill="#E5002C"/>
<path d="M103.936 32.9354H103.174C102.497 32.9354 102.157 32.119 102.636 31.6417L103.936 30.3481V32.933V32.9354Z" fill="#E5002C"/>
<path d="M103.936 25.0692H103.174C102.497 25.0692 102.157 24.2528 102.636 23.7755L103.936 22.4818V25.0667V25.0692Z" fill="#E5002C"/>
<path d="M103.936 17.203H103.174C102.497 17.203 102.157 16.3865 102.636 15.9093L103.936 14.6156V17.2005V17.203Z" fill="#E5002C"/>
<path d="M108.464 46.112C108.471 46.1847 108.413 46.2476 108.34 46.2476H105.543C105.436 46.2476 105.35 46.3324 105.35 46.439V47.5292C105.35 47.6334 105.436 47.7206 105.543 47.7206H107.515C107.622 47.7206 107.707 47.8078 107.707 47.9144L107.692 49.7968C107.692 49.9009 107.605 49.9857 107.5 49.9857H105.543C105.436 49.9857 105.35 50.0705 105.35 50.1771V53.6487C105.35 53.7529 105.265 53.8401 105.158 53.8401H103.021C102.916 53.8401 102.828 53.7553 102.828 53.6487V44.1739C102.828 44.0697 102.914 43.9849 103.018 43.9849L108.272 43.9922C108.376 43.9922 108.462 44.077 108.462 44.1812V46.1168L108.464 46.112Z" fill="#E5002C"/>
<path d="M114.871 51.7106V53.7214C114.871 53.7892 114.815 53.845 114.747 53.845H109.158C109.082 53.845 109.019 53.7844 109.019 53.7069V44.1133C109.019 44.0455 109.075 43.9898 109.143 43.9898H114.745C114.813 43.9898 114.869 44.0455 114.869 44.1133V46.1168C114.876 46.1919 114.815 46.2573 114.74 46.2573H111.665C111.597 46.2573 111.541 46.3131 111.541 46.3809V47.5825C111.541 47.6503 111.597 47.7061 111.665 47.7061H113.905C113.973 47.7061 114.027 47.7618 114.027 47.8272V49.8428C114.027 49.9106 113.971 49.9664 113.903 49.9664H111.665C111.597 49.9664 111.544 50.0221 111.544 50.0875V51.449C111.544 51.5168 111.6 51.5725 111.668 51.5725H114.75C114.823 51.5725 114.879 51.6355 114.871 51.7082V51.7106Z" fill="#E5002C"/>
<path d="M122.701 53.6657C122.735 53.7432 122.676 53.8328 122.591 53.8328H120.113C120.064 53.8328 120.023 53.8038 120.003 53.7626L118.708 50.8094C118.689 50.7658 118.647 50.7392 118.598 50.7392H118.202C118.136 50.7392 118.082 50.7925 118.082 50.8579V53.6851C118.082 53.7505 118.029 53.8038 117.963 53.8038H115.682C115.616 53.8038 115.563 53.7505 115.563 53.6851V44.0673C115.563 44.0019 115.616 43.9486 115.682 43.9486H118.737C120.505 43.9486 121.189 44.2248 121.717 44.6705C122.442 45.2834 122.861 46.238 122.861 47.2918C122.861 48.3456 122.45 49.3534 121.836 49.884C121.654 50.0415 121.491 50.1626 121.323 50.2619C121.271 50.2934 121.25 50.3564 121.274 50.4121L122.703 53.6681L122.701 53.6657ZM120.441 47.3281C120.441 46.846 120.249 46.5287 119.852 46.3591C119.521 46.2161 119.117 46.2162 118.852 46.2162H118.199C118.133 46.2162 118.08 46.2694 118.08 46.3349V48.348C118.08 48.4135 118.133 48.4668 118.199 48.4668H118.942C119.173 48.4668 119.558 48.4668 119.877 48.3238C120.342 48.1155 120.439 47.6673 120.439 47.3281H120.441Z" fill="#E5002C"/>
<path d="M130.657 53.6657C130.691 53.7432 130.632 53.8328 130.547 53.8328H128.069C128.02 53.8328 127.979 53.8038 127.959 53.7626L126.664 50.8094C126.645 50.7658 126.603 50.7392 126.555 50.7392H126.158C126.092 50.7392 126.038 50.7925 126.038 50.8579V53.6851C126.038 53.7505 125.985 53.8038 125.919 53.8038H123.638C123.572 53.8038 123.519 53.7505 123.519 53.6851V44.0673C123.519 44.0019 123.572 43.9486 123.638 43.9486H126.693C128.461 43.9486 129.145 44.2248 129.673 44.6705C130.399 45.2834 130.817 46.238 130.817 47.2918C130.817 48.3456 130.406 49.3534 129.792 49.884C129.61 50.0415 129.447 50.1626 129.279 50.2619C129.228 50.2934 129.206 50.3564 129.23 50.4121L130.659 53.6681L130.657 53.6657ZM128.397 47.3281C128.397 46.846 128.205 46.5287 127.808 46.3591C127.477 46.2161 127.073 46.2162 126.808 46.2162H126.155C126.09 46.2162 126.036 46.2694 126.036 46.3349V48.348C126.036 48.4135 126.09 48.4668 126.155 48.4668H126.898C127.129 48.4668 127.514 48.4668 127.833 48.3238C128.298 48.1155 128.395 47.6673 128.395 47.3281H128.397Z" fill="#E5002C"/>
<path d="M140.418 53.8546H137.972C137.906 53.8546 137.85 53.8135 137.828 53.7529L137.312 52.1952C137.295 52.1443 137.249 52.1104 137.195 52.1104H134.167C134.113 52.1104 134.064 52.1443 134.05 52.1952L133.526 53.7723C133.509 53.8231 133.463 53.8546 133.41 53.8546H130.941C130.856 53.8546 130.795 53.7698 130.827 53.6899L134.466 44.077C134.488 44.0164 134.546 43.9777 134.612 43.9777H136.757C136.815 43.9777 136.866 44.014 136.886 44.0673L140.53 53.6923C140.559 53.7723 140.501 53.8571 140.416 53.8571L140.418 53.8546ZM136.562 49.93L135.8 47.6309C135.761 47.5171 135.598 47.5171 135.562 47.6309L134.797 49.9349C134.77 50.0124 134.829 50.0948 134.912 50.0948H136.443C136.528 50.0948 136.589 50.0124 136.562 49.9324V49.93Z" fill="#E5002C"/>
<path d="M151.829 53.8159H149.63C149.569 53.8159 149.516 53.7699 149.511 53.7069L149.048 48.7114C149.036 48.583 148.856 48.5612 148.815 48.6872L147.191 53.7335C147.174 53.782 147.13 53.8159 147.077 53.8159H145.575C145.523 53.8159 145.477 53.782 145.46 53.7335L143.836 48.6872C143.797 48.5637 143.615 48.583 143.603 48.7139L143.14 53.7093C143.135 53.7699 143.082 53.8183 143.021 53.8183H140.823C140.75 53.8183 140.694 53.7553 140.703 53.6851L141.945 44.0552C141.952 43.9946 142.003 43.951 142.064 43.951H144.603C144.657 43.951 144.703 43.9849 144.718 44.0358L146.227 48.9198C146.261 49.0312 146.422 49.0312 146.456 48.9198L147.914 44.0382C147.929 43.9874 147.975 43.9534 148.028 43.9534H150.582C150.643 43.9534 150.694 43.997 150.701 44.0576L151.943 53.6875C151.953 53.7577 151.897 53.8207 151.824 53.8207L151.829 53.8159Z" fill="#E5002C"/>
<path d="M158.243 51.7106V53.7214C158.243 53.7892 158.187 53.845 158.119 53.845H152.53C152.454 53.845 152.391 53.7844 152.391 53.7069V44.1133C152.391 44.0455 152.447 43.9898 152.515 43.9898H158.117C158.185 43.9898 158.241 44.0455 158.241 44.1133V46.1168C158.248 46.1919 158.187 46.2573 158.112 46.2573H155.037C154.969 46.2573 154.913 46.3131 154.913 46.3809V47.5825C154.913 47.6503 154.969 47.7061 155.037 47.7061H157.277C157.345 47.7061 157.399 47.7618 157.399 47.8272V49.8428C157.399 49.9106 157.343 49.9664 157.274 49.9664H155.037C154.969 49.9664 154.915 50.0221 154.915 50.0875V51.449C154.915 51.5168 154.971 51.5725 155.04 51.5725H158.122C158.195 51.5725 158.251 51.6355 158.243 51.7082V51.7106Z" fill="#E5002C"/>
<path d="M167.1 44.0794V53.6972C167.1 53.7626 167.046 53.8159 166.981 53.8159H164.977C164.938 53.8159 164.902 53.7965 164.88 53.765L161.52 49.0821C161.452 48.9876 161.301 49.0361 161.304 49.1523L161.35 53.6947C161.35 53.7601 161.296 53.8159 161.23 53.8159H159.054C158.988 53.8159 158.935 53.7626 158.935 53.6972V44.0794C158.935 44.014 158.988 43.9607 159.054 43.9607H161.041C161.082 43.9607 161.119 43.9801 161.14 44.014L164.515 49.0579C164.58 49.1572 164.736 49.1087 164.734 48.99L164.687 44.0794C164.687 44.014 164.741 43.9583 164.807 43.9583H166.983C167.049 43.9583 167.102 44.0116 167.102 44.077L167.1 44.0794Z" fill="#E5002C"/>
<path d="M174.147 44.0721V46.1047C174.147 46.1701 174.094 46.2234 174.028 46.2234H172.265C172.2 46.2234 172.146 46.2767 172.146 46.3421V53.6996C172.146 53.765 172.093 53.8183 172.027 53.8183H169.743C169.678 53.8183 169.624 53.765 169.624 53.6996V46.3421C169.624 46.2767 169.571 46.2234 169.505 46.2234H167.73C167.664 46.2234 167.611 46.1701 167.611 46.1047V44.0721C167.611 44.0067 167.664 43.9534 167.73 43.9534H174.03C174.096 43.9534 174.15 44.0067 174.15 44.0721H174.147Z" fill="#E5002C"/>
<path d="M182.271 53.8546H179.825C179.759 53.8546 179.703 53.8135 179.681 53.7529L179.165 52.1952C179.148 52.1443 179.102 52.1104 179.048 52.1104H176.02C175.966 52.1104 175.917 52.1443 175.903 52.1952L175.379 53.7723C175.362 53.8231 175.316 53.8546 175.263 53.8546H172.794C172.709 53.8546 172.648 53.7698 172.68 53.6899L176.319 44.077C176.341 44.0164 176.399 43.9777 176.465 43.9777H178.61C178.668 43.9777 178.719 44.014 178.739 44.0673L182.383 53.6923C182.413 53.7723 182.354 53.8571 182.269 53.8571L182.271 53.8546ZM178.415 49.93L177.653 47.6309C177.614 47.5171 177.451 47.5171 177.415 47.6309L176.65 49.9349C176.623 50.0124 176.682 50.0948 176.765 50.0948H178.296C178.381 50.0948 178.442 50.0124 178.415 49.9324V49.93Z" fill="#E5002C"/>
<path d="M189 50.8312C189 51.2624 188.929 52.091 188.455 52.779C187.897 53.5906 186.943 54 185.616 54C184.513 54 183.652 53.7165 183.048 53.1569C182.787 52.905 182.398 52.418 182.205 51.6283C182.188 51.5628 182.23 51.495 182.298 51.4829L184.557 51.0178C184.618 51.0057 184.679 51.042 184.696 51.1026C184.898 51.8003 185.465 51.839 185.589 51.839C186.147 51.839 186.49 51.3715 186.49 50.9378C186.49 50.4606 186.12 50.3031 184.742 49.712L184.628 49.6635C183.98 49.397 182.259 48.6872 182.259 46.8267C182.259 44.845 184.009 43.7766 185.655 43.7766C185.967 43.7766 186.549 43.8178 187.14 44.0624C187.559 44.2417 188.455 44.7432 188.63 45.7873C188.64 45.8503 188.601 45.9085 188.54 45.9254L186.444 46.4463C186.388 46.4608 186.329 46.4342 186.305 46.3809C186.203 46.1435 186.006 45.94 185.575 45.94C185.175 45.94 184.764 46.2137 184.764 46.6692C184.764 47.0931 185.027 47.2143 186.729 47.9968C188.36 48.7429 188.998 49.5376 188.998 50.8336L189 50.8312Z" fill="#E5002C"/>
</svg>
