<?xml version="1.0" encoding="UTF-8"?>
<svg id="BRANCO" xmlns="http://www.w3.org/2000/svg" viewBox="0 0 1000 1000">
  <defs>
    <style>
      .cls-1 {
        fill: #fff6ef;
      }
    </style>
  </defs>
  <g>
    <g>
      <path class="cls-1" d="M278.19,420.64v22.67c0,.98-.79,1.77-1.77,1.77h-31.04c-.98,0-1.77-.8-1.77-1.77v-22.67c0-.98,.79-1.77,1.77-1.77h31.04c.98,0,1.77,.79,1.77,1.77Zm0,34.98v107.53c0,.98-.79,1.77-1.77,1.77h-31.04c-.98,0-1.77-.79-1.77-1.77v-107.53c0-.98,.79-1.77,1.77-1.77h31.04c.98,0,1.77,.79,1.77,1.77Z"/>
      <path class="cls-1" d="M394.91,540.76c-.89,1.37-2.14,3.27-2.84,4.19-.01,.02-.03,.04-.04,.06-1.09,1.44-2.25,2.82-3.47,4.15-.03,.03-.06,.06-.09,.1-.49,.53-1.32,1.38-1.83,1.89-.09,.09-.18,.19-.28,.28-.52,.51-1.06,1.01-1.6,1.51-.32,.29-.64,.57-.96,.85-.23,.19-.45,.39-.68,.58-8.52,7.17-19.02,11.89-30.22,13.44-.37,.05-.75,.1-1.12,.14-.46,.05-.92,.11-1.39,.15-.72,.07-1.44,.12-2.17,.16-.26,.01-.52,.03-.78,.04-.87,.04-1.75,.06-2.63,.06-32.52,0-58.97-26.09-58.97-58.16s26.46-58.16,58.97-58.16c.88,0,1.76,.03,2.63,.07,.26,.01,.52,.02,.78,.04,.73,.04,1.45,.1,2.17,.16,.46,.04,.93,.1,1.39,.15,.37,.04,.75,.09,1.12,.14,11.21,1.55,21.7,6.27,30.23,13.44,.23,.19,.45,.38,.67,.57,.32,.28,.65,.56,.96,.85,.54,.49,1.08,.99,1.6,1.5,.1,.1,.2,.2,.29,.3,.55,.56,1.1,1.11,1.63,1.69,.09,.1,.18,.19,.27,.29,1.22,1.33,2.38,2.71,3.47,4.15,.01,.02,.03,.04,.04,.06,1.11,1.46,2.15,2.98,3.12,4.55t0,0c.4,.66,.18,1.52-.49,1.91l-15.75,9.09-9.1,5.25c-.8,.46-1.84,.24-2.35-.54-5.17-7.85-12.34-12.19-20.92-12.19s-15.77,3.73-20.74,9.57c-4.19,4.51-6.75,10.52-6.75,17.1s2.56,12.59,6.75,17.1c4.97,5.85,12.42,9.57,20.74,9.57s15.75-4.34,20.92-12.19c.51-.77,1.55-1,2.35-.54l24.45,14.12c.88,.51,1.15,1.64,.61,2.5Z"/>
      <path class="cls-1" d="M521.78,455.56v107.53c0,.98-.79,1.77-1.77,1.77h-31.04c-.98,0-1.77-.79-1.77-1.77v-1.64c0-.68-.74-1.1-1.33-.76-8.9,5.03-18.95,7.67-29.27,7.67-32.52,0-58.97-26.09-58.97-58.16s26.46-58.16,58.97-58.16c10.31,0,20.37,2.64,29.27,7.67,.6,.34,1.33-.08,1.33-.76v-3.39c0-.98,.79-1.77,1.77-1.77h31.04c.98,0,1.77,.79,1.77,1.77Zm-34.59,54.64c0-14.71-10.36-26.67-25.27-26.67s-27.05,11.97-27.05,26.67,12.13,26.68,27.05,26.68,25.27-11.97,25.27-26.68Z"/>
      <path class="cls-1" d="M780.25,455.56v107.53c0,.98-.79,1.77-1.77,1.77h-31.04c-.98,0-1.77-.79-1.77-1.77v-1.64c0-.68-.74-1.1-1.33-.76-8.9,5.03-18.95,7.67-29.27,7.67-32.52,0-58.97-26.09-58.97-58.16s26.46-58.16,58.97-58.16c10.32,0,20.37,2.64,29.27,7.67,.59,.34,1.33-.08,1.33-.76v-3.39c0-.98,.79-1.77,1.77-1.77h31.04c.98,0,1.77,.79,1.77,1.77Zm-34.59,54.64c0-14.71-10.36-26.67-25.27-26.67s-27.05,11.97-27.05,26.67,12.13,26.68,27.05,26.68,25.27-11.97,25.27-26.68Z"/>
      <path class="cls-1" d="M892.32,455.63v107.53c0,.98-.79,1.77-1.77,1.77h-31.04c-.98,0-1.77-.79-1.77-1.77v-2.99c0-.71-.8-1.14-1.38-.73-7.76,5.34-15.45,7.18-22.38,7.18-15.42,0-27.07-9.15-27.25-9.29-.89-.7-1.73-1.44-2.5-2.2h0c-11.32-11.39-13.23-20.62-13.23-36.99v-62.51c0-.98,.79-1.77,1.77-1.77h33.12c.98,0,1.77,.79,1.77,1.77v60.76c0,4.12,.23,8.85,1.96,12.66,.79,1.62,1.85,2.96,3.12,3.95,2.07,1.63,4.76,2.42,8.2,2.42,6.39,0,11.34-2.2,12.92-5.74,1.8-3.84,1.8-9.09,1.8-13.3v-60.76c0-.98,.79-1.77,1.77-1.77h33.13c.98,0,1.77,.79,1.77,1.77Z"/>
    </g>
    <path class="cls-1" d="M217.14,429.97c-7.85-6.63-17.98-10.74-44.16-10.74h-45.27c-.98,0-1.77,.79-1.77,1.77v48.15c4.57-5.91,11.73-9.72,19.78-9.72h0l-12.5,12.5-7.28,7.28v22.41c4.57-5.91,11.73-9.72,19.78-9.72h0l-12.5,12.5-7.28,7.28v22.41c4.57-5.91,11.73-9.72,19.78-9.72h0l-12.5,12.5-7.28,7.28v20.04c0,.98,.79,1.77,1.77,1.77h33.81c.98,0,1.77-.79,1.77-1.77v-42.11c0-.98,.79-1.77,1.77-1.77h11.96c22.8,0,32.3-4.47,41.86-12.72,9.08-7.91,15.19-23.43,15.19-38.61s-6.17-29.9-16.93-39.01Zm-27.22,54.44c-4.72,2.13-10.44,2.13-13.85,2.13h-11c-.98,0-1.77-.79-1.77-1.77v-29.98c0-.98,.79-1.77,1.77-1.77h9.65c3.94,0,9.91,0,14.82,2.13,5.87,2.54,8.72,7.27,8.72,14.44,0,5.06-1.45,11.73-8.34,14.84Z"/>
    <path class="cls-1" d="M125.93,554.82h-3.13c-2.78,0-4.18-3.37-2.21-5.34h0s5.34-5.34,5.34-5.34v10.67Z"/>
    <path class="cls-1" d="M125.93,522.36h-3.13c-2.78,0-4.18-3.37-2.21-5.34h0s5.34-5.34,5.34-5.34v10.67Z"/>
    <path class="cls-1" d="M125.93,489.89h-3.13c-2.78,0-4.18-3.37-2.21-5.34h0s5.34-5.34,5.34-5.34v10.67Z"/>
  </g>
  <path class="cls-1" d="M637.82,429.97c-7.85-6.63-17.98-10.74-44.16-10.74h-45.27c-.98,0-1.77,.79-1.77,1.77v48.15c4.57-5.91,11.73-9.72,19.78-9.72h0l-12.5,12.5-7.28,7.28v22.41c4.57-5.91,11.73-9.72,19.78-9.72h0l-12.5,12.5-7.28,7.28v22.41c4.57-5.91,11.73-9.72,19.78-9.72h0l-12.5,12.5-7.28,7.28v20.04c0,.98,.79,1.77,1.77,1.77h33.81c.98,0,1.77-.79,1.77-1.77v-42.11c0-.98,.79-1.77,1.77-1.77h11.96c22.8,0,32.3-4.47,41.86-12.72,9.08-7.91,15.19-23.43,15.19-38.61s-6.17-29.9-16.93-39.01Zm-27.22,54.44c-4.72,2.13-10.44,2.13-13.85,2.13h-11c-.98,0-1.77-.79-1.77-1.77v-29.98c0-.98,.79-1.77,1.77-1.77h9.65c3.94,0,9.91,0,14.82,2.13,5.87,2.54,8.72,7.27,8.72,14.44,0,5.06-1.45,11.73-8.34,14.84Z"/>
  <path class="cls-1" d="M546.62,554.82h-3.13c-2.78,0-4.18-3.37-2.21-5.34h0s5.34-5.34,5.34-5.34v10.67Z"/>
  <path class="cls-1" d="M546.62,522.36h-3.13c-2.78,0-4.18-3.37-2.21-5.34h0s5.34-5.34,5.34-5.34v10.67Z"/>
  <path class="cls-1" d="M546.62,489.89h-3.13c-2.78,0-4.18-3.37-2.21-5.34h0s5.34-5.34,5.34-5.34v10.67Z"/>
  <g>
    <path class="cls-1" d="M565.22,609.21c.03,.3-.21,.56-.51,.56h-11.49c-.44,0-.79,.35-.79,.79v4.5c0,.43,.35,.79,.79,.79h8.1c.44,0,.79,.36,.79,.8l-.06,7.77c0,.43-.36,.78-.79,.78h-8.04c-.44,0-.79,.35-.79,.79v14.33c0,.43-.35,.79-.79,.79h-8.78c-.43,0-.79-.35-.79-.79v-39.11c0-.43,.35-.78,.78-.78l21.58,.03c.43,0,.78,.35,.78,.78v7.99Z"/>
    <path class="cls-1" d="M591.54,632.32v8.3c0,.28-.23,.51-.51,.51h-22.96c-.31,0-.57-.25-.57-.57v-39.6c0-.28,.23-.51,.51-.51h23.01c.28,0,.51,.23,.51,.51v8.27c.03,.31-.22,.58-.53,.58h-12.63c-.28,0-.51,.23-.51,.51v4.96c0,.28,.23,.51,.51,.51h9.2c.28,0,.5,.23,.5,.5v8.32c0,.28-.23,.51-.51,.51h-9.19c-.28,0-.5,.23-.5,.5v5.62c0,.28,.23,.51,.51,.51h12.66c.3,0,.53,.26,.5,.56Z"/>
    <path class="cls-1" d="M623.7,640.39c.14,.32-.1,.69-.45,.69h-10.18c-.2,0-.37-.12-.45-.29l-5.32-12.19c-.08-.18-.25-.29-.45-.29h-1.63c-.27,0-.49,.22-.49,.49v11.67c0,.27-.22,.49-.49,.49h-9.37c-.27,0-.49-.22-.49-.49v-39.7c0-.27,.22-.49,.49-.49h12.55c7.26,0,10.07,1.14,12.24,2.98,2.98,2.53,4.7,6.47,4.7,10.82s-1.69,8.51-4.21,10.7c-.75,.65-1.42,1.15-2.11,1.56-.21,.13-.3,.39-.2,.62l5.87,13.44Zm-9.28-26.16c0-1.99-.79-3.3-2.42-4-1.36-.59-3.02-.59-4.11-.59h-2.68c-.27,0-.49,.22-.49,.49v8.31c0,.27,.22,.49,.49,.49h3.05c.95,0,2.53,0,3.84-.59,1.91-.86,2.31-2.71,2.31-4.11Z"/>
    <path class="cls-1" d="M656.38,640.39c.14,.32-.1,.69-.45,.69h-10.18c-.2,0-.37-.12-.45-.29l-5.32-12.19c-.08-.18-.25-.29-.45-.29h-1.63c-.27,0-.49,.22-.49,.49v11.67c0,.27-.22,.49-.49,.49h-9.37c-.27,0-.49-.22-.49-.49v-39.7c0-.27,.22-.49,.49-.49h12.55c7.26,0,10.07,1.14,12.24,2.98,2.98,2.53,4.7,6.47,4.7,10.82s-1.69,8.51-4.21,10.7c-.75,.65-1.42,1.15-2.11,1.56-.21,.13-.3,.39-.2,.62l5.87,13.44Zm-9.28-26.16c0-1.99-.79-3.3-2.42-4-1.36-.59-3.02-.59-4.11-.59h-2.68c-.27,0-.49,.22-.49,.49v8.31c0,.27,.22,.49,.49,.49h3.05c.95,0,2.53,0,3.84-.59,1.91-.86,2.31-2.71,2.31-4.11Z"/>
    <path class="cls-1" d="M696.48,641.18h-10.05c-.27,0-.5-.17-.59-.42l-2.12-6.43c-.07-.21-.26-.35-.48-.35h-12.44c-.22,0-.42,.14-.48,.35l-2.15,6.51c-.07,.21-.26,.34-.48,.34h-10.14c-.35,0-.6-.35-.47-.68l14.95-39.68c.09-.25,.33-.41,.6-.41h8.81c.24,0,.45,.15,.53,.37l14.97,39.73c.12,.33-.12,.68-.47,.68Zm-15.84-16.2l-3.13-9.49c-.16-.47-.83-.47-.98,0l-3.14,9.51c-.11,.32,.13,.66,.47,.66h6.29c.35,0,.6-.34,.49-.67Z"/>
    <path class="cls-1" d="M743.35,641.02h-9.03c-.25,0-.47-.19-.49-.45l-1.9-20.62c-.05-.53-.79-.62-.96-.1l-6.67,20.83c-.07,.2-.25,.34-.47,.34h-6.17c-.21,0-.4-.14-.47-.34l-6.67-20.83c-.16-.51-.91-.43-.96,.11l-1.9,20.62c-.02,.25-.24,.45-.49,.45h-9.03c-.3,0-.53-.26-.49-.55l5.1-39.75c.03-.25,.24-.43,.49-.43h10.43c.22,0,.41,.14,.47,.35l6.2,20.16c.14,.46,.8,.46,.94,0l5.99-20.15c.06-.21,.25-.35,.47-.35h10.49c.25,0,.46,.18,.49,.43l5.1,39.75c.04,.29-.19,.55-.49,.55Z"/>
    <path class="cls-1" d="M769.69,632.32v8.3c0,.28-.23,.51-.51,.51h-22.96c-.31,0-.57-.25-.57-.57v-39.6c0-.28,.23-.51,.51-.51h23.01c.28,0,.51,.23,.51,.51v8.27c.03,.31-.22,.58-.53,.58h-12.63c-.28,0-.51,.23-.51,.51v4.96c0,.28,.23,.51,.51,.51h9.2c.28,0,.5,.23,.5,.5v8.32c0,.28-.23,.51-.51,.51h-9.19c-.28,0-.5,.23-.5,.5v5.62c0,.28,.23,.51,.51,.51h12.66c.3,0,.53,.26,.5,.56Z"/>
    <path class="cls-1" d="M806.07,600.83v39.7c0,.27-.22,.49-.49,.49h-8.23c-.16,0-.31-.08-.4-.21l-13.8-19.33c-.28-.39-.9-.19-.89,.29l.19,18.75c0,.27-.22,.5-.49,.5h-8.94c-.27,0-.49-.22-.49-.49v-39.7c0-.27,.22-.49,.49-.49h8.16c.17,0,.32,.08,.41,.22l13.86,20.82c.27,.41,.91,.21,.9-.28l-.19-20.27c0-.27,.22-.5,.49-.5h8.94c.27,0,.49,.22,.49,.49Z"/>
    <path class="cls-1" d="M835.03,600.8v8.39c0,.27-.22,.49-.49,.49h-7.24c-.27,0-.49,.22-.49,.49v30.37c0,.27-.22,.49-.49,.49h-9.38c-.27,0-.49-.22-.49-.49v-30.37c0-.27-.22-.49-.49-.49h-7.29c-.27,0-.49-.22-.49-.49v-8.39c0-.27,.22-.49,.49-.49h25.88c.27,0,.49,.22,.49,.49Z"/>
    <path class="cls-1" d="M868.4,641.18h-10.05c-.27,0-.5-.17-.59-.42l-2.12-6.43c-.07-.21-.26-.35-.48-.35h-12.44c-.22,0-.42,.14-.48,.35l-2.15,6.51c-.07,.21-.26,.34-.48,.34h-10.14c-.35,0-.6-.35-.47-.68l14.95-39.68c.09-.25,.33-.41,.6-.41h8.81c.24,0,.45,.15,.53,.37l14.97,39.73c.12,.33-.12,.68-.47,.68Zm-15.84-16.2l-3.13-9.49c-.16-.47-.83-.47-.98,0l-3.14,9.51c-.11,.32,.13,.66,.47,.66h6.29c.35,0,.6-.34,.49-.67Z"/>
    <path class="cls-1" d="M896.04,628.7c0,1.78-.29,5.2-2.24,8.04-2.29,3.35-6.21,5.04-11.66,5.04-4.53,0-8.07-1.17-10.55-3.48-1.07-1.04-2.67-3.05-3.46-6.31-.07-.27,.1-.55,.38-.6l9.28-1.92c.25-.05,.5,.1,.57,.35,.83,2.88,3.16,3.04,3.67,3.04,2.29,0,3.7-1.93,3.7-3.72,0-1.97-1.52-2.62-7.18-5.06l-.47-.2c-2.66-1.1-9.73-4.03-9.73-11.71,0-8.18,7.19-12.59,13.95-12.59,1.28,0,3.67,.17,6.1,1.18,1.72,.74,5.4,2.81,6.12,7.12,.04,.26-.12,.5-.37,.57l-8.61,2.15c-.23,.06-.47-.05-.57-.27-.42-.98-1.23-1.82-3-1.82-1.64,0-3.33,1.13-3.33,3.01,0,1.75,1.08,2.25,8.07,5.48,6.7,3.08,9.32,6.36,9.32,11.71Z"/>
  </g>
</svg>