<svg width="28" height="36" viewBox="0 0 28 36" fill="none" xmlns="http://www.w3.org/2000/svg">
<path d="M23.7265 2.60189C21.8154 0.995697 19.3493 0 12.976 0H1.95531C1.71673 0 1.52441 0.191391 1.52441 0.428807V12.0937C2.63695 10.6619 4.38 9.7389 6.33972 9.7389L3.29668 12.7672L1.52441 14.5308V19.9599C2.63695 18.5281 4.38 17.6051 6.33972 17.6051L3.29668 20.6334L1.52441 22.397V27.8261C2.63695 26.3943 4.38 25.4713 6.33972 25.4713L3.29668 28.4996L1.52441 30.2633V35.1182C1.52441 35.3556 1.71673 35.547 1.95531 35.547H10.1861C10.4247 35.547 10.617 35.3556 10.617 35.1182V24.9165C10.617 24.6791 10.8093 24.4877 11.0479 24.4877H13.9595C19.51 24.4877 21.8227 23.4048 24.15 21.4062C26.3605 19.4899 27.848 15.73 27.848 12.0525C27.848 8.37497 26.3459 4.80889 23.7265 2.60189ZM17.0999 15.7906C15.9509 16.3066 14.5584 16.3066 13.7282 16.3066H11.0504C10.8118 16.3066 10.6195 16.1152 10.6195 15.8778V8.61481C10.6195 8.37739 10.8118 8.18601 11.0504 8.18601H13.3996C14.3588 8.18601 15.8121 8.18601 17.0074 8.70202C18.4364 9.31737 19.1302 10.4633 19.1302 12.2003C19.1302 13.4261 18.7772 15.042 17.0999 15.7954V15.7906Z" fill="#FFB236"/>
<path d="M1.52425 32.85H0.762276C0.085503 32.85 -0.255318 32.0336 0.224266 31.5563L1.52425 30.2627V32.8476V32.85Z" fill="#FFB236"/>
<path d="M1.52425 24.9839H0.762276C0.085503 24.9839 -0.255318 24.1675 0.224266 23.6902L1.52425 22.3965V24.9814V24.9839Z" fill="#FFB236"/>
<path d="M1.52425 17.1177H0.762276C0.085503 17.1177 -0.255318 16.3012 0.224266 15.824L1.52425 14.5303V17.1152V17.1177Z" fill="#FFB236"/>
</svg>
