<?xml version="1.0" encoding="UTF-8"?>
<svg id="P_AZUL" data-name="P AZUL" xmlns="http://www.w3.org/2000/svg" viewBox="0 0 1000 1000">
  <defs>
    <style>
      .cls-1 {
        fill: #183c6b;
      }
    </style>
  </defs>
  <path class="cls-1" d="M608.69,330.94c-21.2-17.89-48.54-28.98-119.2-28.98h-122.22c-2.64,0-4.79,2.14-4.79,4.79v129.98c12.34-15.96,31.67-26.25,53.4-26.25h0l-33.74,33.74-19.66,19.66v60.49c12.34-15.96,31.67-26.25,53.4-26.25h0l-33.74,33.74-19.66,19.66v60.49c12.34-15.96,31.67-26.25,53.4-26.25h0l-33.74,33.74-19.66,19.66v54.09c0,2.64,2.14,4.79,4.79,4.79h91.27c2.64,0,4.79-2.14,4.79-4.79v-113.67c0-2.64,2.14-4.79,4.79-4.79h32.28c61.54,0,87.19-12.07,113.01-34.33,24.52-21.35,41-63.24,41-104.22s-16.66-80.71-45.71-105.31Zm-73.49,146.96c-12.74,5.74-28.18,5.74-37.4,5.74h-29.69c-2.64,0-4.79-2.14-4.79-4.79v-80.93c0-2.64,2.14-4.79,4.79-4.79h26.05c10.65,0,26.74,0,40.01,5.74,15.84,6.86,23.54,19.61,23.54,38.97,0,13.65-3.91,31.68-22.51,40.05Z"/>
  <path class="cls-1" d="M362.49,667.98h-8.44c-7.52,0-11.28-9.09-5.97-14.4h0s14.4-14.4,14.4-14.4v28.81Z"/>
  <path class="cls-1" d="M362.49,580.33h-8.44c-7.52,0-11.28-9.09-5.97-14.4h0s14.4-14.4,14.4-14.4v28.81Z"/>
  <path class="cls-1" d="M362.49,492.69h-8.44c-7.52,0-11.28-9.09-5.97-14.4h0s14.4-14.4,14.4-14.4v28.81Z"/>
</svg>